<svg xmlns="http://www.w3.org/2000/svg" xmlns:xlink="http://www.w3.org/1999/xlink" width="450" zoomAndPan="magnify" viewBox="0 0 337.5 74.999997" height="100" preserveAspectRatio="xMidYMid meet" version="1.0"><defs><g/><clipPath id="a175ab1fae"><path d="M 123.839844 5.875 L 193.019531 5.875 L 193.019531 74.945312 L 123.839844 74.945312 Z M 123.839844 5.875 " clip-rule="nonzero"/></clipPath><clipPath id="34b518bae4"><path d="M 158.429688 5.875 C 139.328125 5.875 123.839844 21.363281 123.839844 40.464844 C 123.839844 59.570312 139.328125 75.054688 158.429688 75.054688 C 177.535156 75.054688 193.019531 59.570312 193.019531 40.464844 C 193.019531 21.363281 177.535156 5.875 158.429688 5.875 " clip-rule="nonzero"/></clipPath><clipPath id="99ae69073d"><path d="M 129.105469 0.328125 L 198.285156 0.328125 L 198.285156 69.507812 L 129.105469 69.507812 Z M 129.105469 0.328125 " clip-rule="nonzero"/></clipPath><clipPath id="47ccec2296"><path d="M 163.695312 0.328125 C 144.589844 0.328125 129.105469 15.816406 129.105469 34.917969 C 129.105469 54.023438 144.589844 69.507812 163.695312 69.507812 C 182.796875 69.507812 198.285156 54.023438 198.285156 34.917969 C 198.285156 15.816406 182.796875 0.328125 163.695312 0.328125 " clip-rule="nonzero"/></clipPath><clipPath id="afc34393e8"><path d="M 126.332031 3.101562 L 195.511719 3.101562 L 195.511719 72.28125 L 126.332031 72.28125 Z M 126.332031 3.101562 " clip-rule="nonzero"/></clipPath><clipPath id="06f12225c9"><path d="M 160.921875 3.101562 C 141.816406 3.101562 126.332031 18.589844 126.332031 37.691406 C 126.332031 56.796875 141.816406 72.28125 160.921875 72.28125 C 180.023438 72.28125 195.511719 56.796875 195.511719 37.691406 C 195.511719 18.589844 180.023438 3.101562 160.921875 3.101562 " clip-rule="nonzero"/></clipPath><clipPath id="66f2bfe446"><path d="M 139 5 L 183 5 L 183 68 L 139 68 Z M 139 5 " clip-rule="nonzero"/></clipPath><clipPath id="8749fd6623"><path d="M 127.617188 22.445312 L 159.074219 0.382812 L 194.1875 50.449219 L 162.730469 72.511719 Z M 127.617188 22.445312 " clip-rule="nonzero"/></clipPath><clipPath id="475272d7cb"><path d="M 127.617188 22.445312 L 159.074219 0.382812 L 194.1875 50.449219 L 162.730469 72.511719 Z M 127.617188 22.445312 " clip-rule="nonzero"/></clipPath><clipPath id="c66f5bdbbc"><path d="M 127.617188 22.445312 L 159.074219 0.382812 L 194.1875 50.449219 L 162.730469 72.511719 Z M 127.617188 22.445312 " clip-rule="nonzero"/></clipPath></defs><g clip-path="url(#a175ab1fae)"><g clip-path="url(#34b518bae4)"><path fill="#e31414" d="M 123.839844 5.875 L 193.019531 5.875 L 193.019531 75.054688 L 123.839844 75.054688 Z M 123.839844 5.875 " fill-opacity="1" fill-rule="nonzero"/></g></g><g clip-path="url(#99ae69073d)"><g clip-path="url(#47ccec2296)"><path fill="#e31414" d="M 129.105469 0.328125 L 198.285156 0.328125 L 198.285156 69.507812 L 129.105469 69.507812 Z M 129.105469 0.328125 " fill-opacity="1" fill-rule="nonzero"/></g></g><g clip-path="url(#afc34393e8)"><g clip-path="url(#06f12225c9)"><path fill="#ffffff" d="M 126.332031 3.101562 L 195.511719 3.101562 L 195.511719 72.28125 L 126.332031 72.28125 Z M 126.332031 3.101562 " fill-opacity="1" fill-rule="nonzero"/></g></g><g clip-path="url(#66f2bfe446)"><g clip-path="url(#8749fd6623)"><g clip-path="url(#475272d7cb)"><g clip-path="url(#c66f5bdbbc)"><path fill="#de0a17" d="M 167.152344 45.359375 C 162.210938 48.824219 155.410156 47.640625 151.960938 42.71875 C 148.507812 37.796875 149.710938 31 154.652344 27.535156 C 159.589844 24.074219 166.390625 25.253906 169.84375 30.175781 C 173.292969 35.097656 172.089844 41.894531 167.152344 45.359375 Z M 176.554688 25.308594 L 176.550781 25.3125 C 170.457031 16.742188 158.558594 14.707031 149.90625 20.773438 C 149.550781 21.023438 149.210938 21.285156 148.875 21.554688 C 148.714844 13.492188 151.484375 5.730469 152.296875 5.160156 C 143.609375 11.253906 132.988281 30.105469 145.171875 47.480469 C 145.195312 47.515625 145.222656 47.550781 145.246094 47.585938 L 145.25 47.585938 C 151.34375 56.152344 163.246094 58.191406 171.894531 52.125 C 172.25 51.875 172.589844 51.609375 172.925781 51.34375 C 173.085938 59.402344 170.316406 67.167969 169.503906 67.734375 C 178.191406 61.644531 188.816406 42.789062 176.628906 25.417969 C 176.605469 25.378906 176.578125 25.34375 176.554688 25.308594 " fill-opacity="1" fill-rule="nonzero"/></g></g></g></g><g fill="#000000" fill-opacity="0.302"><g transform="translate(45.442648, 45.909164)"><g><path d="M 13.839844 0 L 13.839844 -13.644531 L 10.722656 -13.644531 L 10.722656 -5.261719 L 4.679688 -13.644531 L 0.0976562 -13.644531 L 0.0976562 -10.527344 L 1.558594 -10.527344 L 1.558594 0 L 4.679688 0 L 4.679688 -8.363281 L 10.722656 0 Z M 13.839844 0 "/></g></g></g><g fill="#000000" fill-opacity="0.302"><g transform="translate(62.341611, 45.909164)"><g><path d="M 4.09375 0 L 4.09375 -13.644531 L 0.976562 -13.644531 L 0.976562 0 Z M 4.09375 0 "/></g></g></g><g fill="#000000" fill-opacity="0.302"><g transform="translate(69.495337, 45.909164)"><g><path d="M 8.597656 0 L 8.597656 -10.527344 L 13.976562 -10.527344 L 13.976562 -13.644531 L 0.0976562 -13.644531 L 0.0976562 -10.527344 L 5.476562 -10.527344 L 5.476562 0 Z M 8.597656 0 "/></g></g></g><g fill="#000000" fill-opacity="0.302"><g transform="translate(85.653659, 45.909164)"><g><path d="M 11.890625 -3.3125 L 13.839844 -5.261719 L 13.839844 -11.695312 L 11.890625 -13.644531 L 0.0976562 -13.644531 L 0.0976562 -10.527344 L 10.722656 -10.527344 L 10.722656 -6.433594 L 4.679688 -6.433594 L 4.679688 -9.550781 L 1.558594 -9.550781 L 1.558594 0 L 4.679688 0 L 4.679688 -3.3125 L 7.933594 -3.3125 C 8.910156 -2.203125 9.863281 -1.089844 10.859375 0 L 14.816406 0 C 13.820312 -1.089844 12.867188 -2.203125 11.890625 -3.3125 Z M 11.890625 -3.3125 "/></g></g></g><g fill="#000000" fill-opacity="0.302"><g transform="translate(102.747528, 45.909164)"><g><path d="M 13.253906 0 L 15.203125 -1.949219 L 15.203125 -11.695312 L 13.253906 -13.644531 L 2.925781 -13.644531 L 0.976562 -11.695312 L 0.976562 -1.949219 L 2.925781 0 Z M 12.085938 -3.117188 L 4.09375 -3.117188 L 4.09375 -10.527344 L 12.085938 -10.527344 Z M 12.085938 -3.117188 "/></g></g></g><g fill="#000000" fill-opacity="0.502"><g transform="translate(44.580982, 45.047498)"><g><path d="M 13.839844 0 L 13.839844 -13.644531 L 10.722656 -13.644531 L 10.722656 -5.261719 L 4.679688 -13.644531 L 0.0976562 -13.644531 L 0.0976562 -10.527344 L 1.558594 -10.527344 L 1.558594 0 L 4.679688 0 L 4.679688 -8.363281 L 10.722656 0 Z M 13.839844 0 "/></g></g></g><g fill="#000000" fill-opacity="0.502"><g transform="translate(61.479945, 45.047498)"><g><path d="M 4.09375 0 L 4.09375 -13.644531 L 0.976562 -13.644531 L 0.976562 0 Z M 4.09375 0 "/></g></g></g><g fill="#000000" fill-opacity="0.502"><g transform="translate(68.633671, 45.047498)"><g><path d="M 8.597656 0 L 8.597656 -10.527344 L 13.976562 -10.527344 L 13.976562 -13.644531 L 0.0976562 -13.644531 L 0.0976562 -10.527344 L 5.476562 -10.527344 L 5.476562 0 Z M 8.597656 0 "/></g></g></g><g fill="#000000" fill-opacity="0.502"><g transform="translate(84.791993, 45.047498)"><g><path d="M 11.890625 -3.3125 L 13.839844 -5.261719 L 13.839844 -11.695312 L 11.890625 -13.644531 L 0.0976562 -13.644531 L 0.0976562 -10.527344 L 10.722656 -10.527344 L 10.722656 -6.433594 L 4.679688 -6.433594 L 4.679688 -9.550781 L 1.558594 -9.550781 L 1.558594 0 L 4.679688 0 L 4.679688 -3.3125 L 7.933594 -3.3125 C 8.910156 -2.203125 9.863281 -1.089844 10.859375 0 L 14.816406 0 C 13.820312 -1.089844 12.867188 -2.203125 11.890625 -3.3125 Z M 11.890625 -3.3125 "/></g></g></g><g fill="#000000" fill-opacity="0.502"><g transform="translate(101.885862, 45.047498)"><g><path d="M 13.253906 0 L 15.203125 -1.949219 L 15.203125 -11.695312 L 13.253906 -13.644531 L 2.925781 -13.644531 L 0.976562 -11.695312 L 0.976562 -1.949219 L 2.925781 0 Z M 12.085938 -3.117188 L 4.09375 -3.117188 L 4.09375 -10.527344 L 12.085938 -10.527344 Z M 12.085938 -3.117188 "/></g></g></g><g fill="#000000" fill-opacity="1"><g transform="translate(43.719316, 44.185831)"><g><path d="M 13.839844 0 L 13.839844 -13.644531 L 10.722656 -13.644531 L 10.722656 -5.261719 L 4.679688 -13.644531 L 0.0976562 -13.644531 L 0.0976562 -10.527344 L 1.558594 -10.527344 L 1.558594 0 L 4.679688 0 L 4.679688 -8.363281 L 10.722656 0 Z M 13.839844 0 "/></g></g></g><g fill="#000000" fill-opacity="1"><g transform="translate(60.618279, 44.185831)"><g><path d="M 4.09375 0 L 4.09375 -13.644531 L 0.976562 -13.644531 L 0.976562 0 Z M 4.09375 0 "/></g></g></g><g fill="#000000" fill-opacity="1"><g transform="translate(67.772005, 44.185831)"><g><path d="M 8.597656 0 L 8.597656 -10.527344 L 13.976562 -10.527344 L 13.976562 -13.644531 L 0.0976562 -13.644531 L 0.0976562 -10.527344 L 5.476562 -10.527344 L 5.476562 0 Z M 8.597656 0 "/></g></g></g><g fill="#000000" fill-opacity="1"><g transform="translate(83.930327, 44.185831)"><g><path d="M 11.890625 -3.3125 L 13.839844 -5.261719 L 13.839844 -11.695312 L 11.890625 -13.644531 L 0.0976562 -13.644531 L 0.0976562 -10.527344 L 10.722656 -10.527344 L 10.722656 -6.433594 L 4.679688 -6.433594 L 4.679688 -9.550781 L 1.558594 -9.550781 L 1.558594 0 L 4.679688 0 L 4.679688 -3.3125 L 7.933594 -3.3125 C 8.910156 -2.203125 9.863281 -1.089844 10.859375 0 L 14.816406 0 C 13.820312 -1.089844 12.867188 -2.203125 11.890625 -3.3125 Z M 11.890625 -3.3125 "/></g></g></g><g fill="#000000" fill-opacity="1"><g transform="translate(101.024196, 44.185831)"><g><path d="M 13.253906 0 L 15.203125 -1.949219 L 15.203125 -11.695312 L 13.253906 -13.644531 L 2.925781 -13.644531 L 0.976562 -11.695312 L 0.976562 -1.949219 L 2.925781 0 Z M 12.085938 -3.117188 L 4.09375 -3.117188 L 4.09375 -10.527344 L 12.085938 -10.527344 Z M 12.085938 -3.117188 "/></g></g></g><g fill="#000000" fill-opacity="0.302"><g transform="translate(121.003306, 45.909164)"><g/></g></g><g fill="#000000" fill-opacity="0.302"><g transform="translate(130.885699, 45.909164)"><g/></g></g><g fill="#000000" fill-opacity="0.302"><g transform="translate(140.768091, 45.909164)"><g/></g></g><g fill="#000000" fill-opacity="0.302"><g transform="translate(150.650484, 45.909164)"><g/></g></g><g fill="#000000" fill-opacity="0.302"><g transform="translate(160.532876, 45.909164)"><g/></g></g><g fill="#000000" fill-opacity="0.302"><g transform="translate(170.415271, 45.909164)"><g/></g></g><g fill="#000000" fill-opacity="0.302"><g transform="translate(180.297666, 45.909164)"><g/></g></g><g fill="#000000" fill-opacity="0.302"><g transform="translate(190.180061, 45.909164)"><g/></g></g><g fill="#000000" fill-opacity="0.302"><g transform="translate(200.062456, 45.909164)"><g/></g></g><g fill="#000000" fill-opacity="0.502"><g transform="translate(120.14164, 45.047498)"><g/></g></g><g fill="#000000" fill-opacity="0.502"><g transform="translate(130.024032, 45.047498)"><g/></g></g><g fill="#000000" fill-opacity="0.502"><g transform="translate(139.906425, 45.047498)"><g/></g></g><g fill="#000000" fill-opacity="0.502"><g transform="translate(149.788818, 45.047498)"><g/></g></g><g fill="#000000" fill-opacity="0.502"><g transform="translate(159.67121, 45.047498)"><g/></g></g><g fill="#000000" fill-opacity="0.502"><g transform="translate(169.553605, 45.047498)"><g/></g></g><g fill="#000000" fill-opacity="0.502"><g transform="translate(179.436, 45.047498)"><g/></g></g><g fill="#000000" fill-opacity="0.502"><g transform="translate(189.318395, 45.047498)"><g/></g></g><g fill="#000000" fill-opacity="0.502"><g transform="translate(199.20079, 45.047498)"><g/></g></g><g fill="#000000" fill-opacity="1"><g transform="translate(119.279974, 44.185831)"><g/></g></g><g fill="#000000" fill-opacity="1"><g transform="translate(129.162367, 44.185831)"><g/></g></g><g fill="#000000" fill-opacity="1"><g transform="translate(139.044759, 44.185831)"><g/></g></g><g fill="#000000" fill-opacity="1"><g transform="translate(148.927152, 44.185831)"><g/></g></g><g fill="#000000" fill-opacity="1"><g transform="translate(158.809545, 44.185831)"><g/></g></g><g fill="#000000" fill-opacity="1"><g transform="translate(168.691939, 44.185831)"><g/></g></g><g fill="#000000" fill-opacity="1"><g transform="translate(178.574334, 44.185831)"><g/></g></g><g fill="#000000" fill-opacity="1"><g transform="translate(188.456729, 44.185831)"><g/></g></g><g fill="#000000" fill-opacity="1"><g transform="translate(198.339124, 44.185831)"><g/></g></g><g fill="#000000" fill-opacity="0.302"><g transform="translate(209.940971, 45.909164)"><g><path d="M 11.988281 0 L 13.9375 -1.949219 L 13.9375 -6.433594 L 11.988281 -8.382812 L 4.09375 -8.382812 L 4.09375 -10.527344 L 13.9375 -10.527344 L 13.9375 -13.644531 L 2.925781 -13.644531 L 0.976562 -11.695312 L 0.976562 -7.210938 L 2.925781 -5.261719 L 10.820312 -5.261719 L 10.820312 -3.117188 L 0.976562 -3.117188 L 0.976562 0 Z M 11.988281 0 "/></g></g></g><g fill="#000000" fill-opacity="0.302"><g transform="translate(226.937382, 45.909164)"><g><path d="M 8.597656 0 L 8.597656 -10.527344 L 13.976562 -10.527344 L 13.976562 -13.644531 L 0.0976562 -13.644531 L 0.0976562 -10.527344 L 5.476562 -10.527344 L 5.476562 0 Z M 8.597656 0 "/></g></g></g><g fill="#000000" fill-opacity="0.302"><g transform="translate(243.095706, 45.909164)"><g><path d="M 13.253906 0 L 15.203125 -1.949219 L 15.203125 -11.695312 L 13.253906 -13.644531 L 2.925781 -13.644531 L 0.976562 -11.695312 L 0.976562 -1.949219 L 2.925781 0 Z M 12.085938 -3.117188 L 4.09375 -3.117188 L 4.09375 -10.527344 L 12.085938 -10.527344 Z M 12.085938 -3.117188 "/></g></g></g><g fill="#000000" fill-opacity="0.302"><g transform="translate(261.358992, 45.909164)"><g><path d="M 11.890625 -3.3125 L 13.839844 -5.261719 L 13.839844 -11.695312 L 11.890625 -13.644531 L 0.0976562 -13.644531 L 0.0976562 -10.527344 L 10.722656 -10.527344 L 10.722656 -6.433594 L 4.679688 -6.433594 L 4.679688 -9.550781 L 1.558594 -9.550781 L 1.558594 0 L 4.679688 0 L 4.679688 -3.3125 L 7.933594 -3.3125 C 8.910156 -2.203125 9.863281 -1.089844 10.859375 0 L 14.816406 0 C 13.820312 -1.089844 12.867188 -2.203125 11.890625 -3.3125 Z M 11.890625 -3.3125 "/></g></g></g><g fill="#000000" fill-opacity="0.302"><g transform="translate(278.45286, 45.909164)"><g><path d="M 4.582031 -13.644531 L 0.0976562 -13.644531 L 0.0976562 -10.527344 L 1.558594 -10.527344 L 1.558594 0 L 4.679688 0 L 4.679688 -8.324219 C 6.082031 -6.414062 7.484375 -4.503906 8.910156 -2.59375 C 10.3125 -4.503906 11.734375 -6.414062 13.15625 -8.324219 L 13.15625 0 L 16.277344 0 L 16.277344 -13.644531 L 13.253906 -13.644531 C 11.792969 -11.695312 10.351562 -9.726562 8.910156 -7.777344 Z M 4.582031 -13.644531 "/></g></g></g><g fill="#000000" fill-opacity="0.502"><g transform="translate(209.079305, 45.047498)"><g><path d="M 11.988281 0 L 13.9375 -1.949219 L 13.9375 -6.433594 L 11.988281 -8.382812 L 4.09375 -8.382812 L 4.09375 -10.527344 L 13.9375 -10.527344 L 13.9375 -13.644531 L 2.925781 -13.644531 L 0.976562 -11.695312 L 0.976562 -7.210938 L 2.925781 -5.261719 L 10.820312 -5.261719 L 10.820312 -3.117188 L 0.976562 -3.117188 L 0.976562 0 Z M 11.988281 0 "/></g></g></g><g fill="#000000" fill-opacity="0.502"><g transform="translate(226.075715, 45.047498)"><g><path d="M 8.597656 0 L 8.597656 -10.527344 L 13.976562 -10.527344 L 13.976562 -13.644531 L 0.0976562 -13.644531 L 0.0976562 -10.527344 L 5.476562 -10.527344 L 5.476562 0 Z M 8.597656 0 "/></g></g></g><g fill="#000000" fill-opacity="0.502"><g transform="translate(242.23404, 45.047498)"><g><path d="M 13.253906 0 L 15.203125 -1.949219 L 15.203125 -11.695312 L 13.253906 -13.644531 L 2.925781 -13.644531 L 0.976562 -11.695312 L 0.976562 -1.949219 L 2.925781 0 Z M 12.085938 -3.117188 L 4.09375 -3.117188 L 4.09375 -10.527344 L 12.085938 -10.527344 Z M 12.085938 -3.117188 "/></g></g></g><g fill="#000000" fill-opacity="0.502"><g transform="translate(260.497326, 45.047498)"><g><path d="M 11.890625 -3.3125 L 13.839844 -5.261719 L 13.839844 -11.695312 L 11.890625 -13.644531 L 0.0976562 -13.644531 L 0.0976562 -10.527344 L 10.722656 -10.527344 L 10.722656 -6.433594 L 4.679688 -6.433594 L 4.679688 -9.550781 L 1.558594 -9.550781 L 1.558594 0 L 4.679688 0 L 4.679688 -3.3125 L 7.933594 -3.3125 C 8.910156 -2.203125 9.863281 -1.089844 10.859375 0 L 14.816406 0 C 13.820312 -1.089844 12.867188 -2.203125 11.890625 -3.3125 Z M 11.890625 -3.3125 "/></g></g></g><g fill="#000000" fill-opacity="0.502"><g transform="translate(277.591194, 45.047498)"><g><path d="M 4.582031 -13.644531 L 0.0976562 -13.644531 L 0.0976562 -10.527344 L 1.558594 -10.527344 L 1.558594 0 L 4.679688 0 L 4.679688 -8.324219 C 6.082031 -6.414062 7.484375 -4.503906 8.910156 -2.59375 C 10.3125 -4.503906 11.734375 -6.414062 13.15625 -8.324219 L 13.15625 0 L 16.277344 0 L 16.277344 -13.644531 L 13.253906 -13.644531 C 11.792969 -11.695312 10.351562 -9.726562 8.910156 -7.777344 Z M 4.582031 -13.644531 "/></g></g></g><g fill="#000000" fill-opacity="1"><g transform="translate(208.217639, 44.185831)"><g><path d="M 11.988281 0 L 13.9375 -1.949219 L 13.9375 -6.433594 L 11.988281 -8.382812 L 4.09375 -8.382812 L 4.09375 -10.527344 L 13.9375 -10.527344 L 13.9375 -13.644531 L 2.925781 -13.644531 L 0.976562 -11.695312 L 0.976562 -7.210938 L 2.925781 -5.261719 L 10.820312 -5.261719 L 10.820312 -3.117188 L 0.976562 -3.117188 L 0.976562 0 Z M 11.988281 0 "/></g></g></g><g fill="#000000" fill-opacity="1"><g transform="translate(225.21405, 44.185831)"><g><path d="M 8.597656 0 L 8.597656 -10.527344 L 13.976562 -10.527344 L 13.976562 -13.644531 L 0.0976562 -13.644531 L 0.0976562 -10.527344 L 5.476562 -10.527344 L 5.476562 0 Z M 8.597656 0 "/></g></g></g><g fill="#000000" fill-opacity="1"><g transform="translate(241.372374, 44.185831)"><g><path d="M 13.253906 0 L 15.203125 -1.949219 L 15.203125 -11.695312 L 13.253906 -13.644531 L 2.925781 -13.644531 L 0.976562 -11.695312 L 0.976562 -1.949219 L 2.925781 0 Z M 12.085938 -3.117188 L 4.09375 -3.117188 L 4.09375 -10.527344 L 12.085938 -10.527344 Z M 12.085938 -3.117188 "/></g></g></g><g fill="#000000" fill-opacity="1"><g transform="translate(259.63566, 44.185831)"><g><path d="M 11.890625 -3.3125 L 13.839844 -5.261719 L 13.839844 -11.695312 L 11.890625 -13.644531 L 0.0976562 -13.644531 L 0.0976562 -10.527344 L 10.722656 -10.527344 L 10.722656 -6.433594 L 4.679688 -6.433594 L 4.679688 -9.550781 L 1.558594 -9.550781 L 1.558594 0 L 4.679688 0 L 4.679688 -3.3125 L 7.933594 -3.3125 C 8.910156 -2.203125 9.863281 -1.089844 10.859375 0 L 14.816406 0 C 13.820312 -1.089844 12.867188 -2.203125 11.890625 -3.3125 Z M 11.890625 -3.3125 "/></g></g></g><g fill="#000000" fill-opacity="1"><g transform="translate(276.729528, 44.185831)"><g><path d="M 4.582031 -13.644531 L 0.0976562 -13.644531 L 0.0976562 -10.527344 L 1.558594 -10.527344 L 1.558594 0 L 4.679688 0 L 4.679688 -8.324219 C 6.082031 -6.414062 7.484375 -4.503906 8.910156 -2.59375 C 10.3125 -4.503906 11.734375 -6.414062 13.15625 -8.324219 L 13.15625 0 L 16.277344 0 L 16.277344 -13.644531 L 13.253906 -13.644531 C 11.792969 -11.695312 10.351562 -9.726562 8.910156 -7.777344 Z M 4.582031 -13.644531 "/></g></g></g></svg>