<svg xmlns="http://www.w3.org/2000/svg" xmlns:xlink="http://www.w3.org/1999/xlink" width="500" zoomAndPan="magnify" viewBox="0 0 375 374.999991" height="500" preserveAspectRatio="xMidYMid meet" version="1.0"><defs><g/><clipPath id="8703e696e7"><path d="M 38.636719 68.769531 L 316.367188 68.769531 L 316.367188 346.5 L 38.636719 346.5 Z M 38.636719 68.769531 " clip-rule="nonzero"/></clipPath><clipPath id="511c28235c"><path d="M 177.503906 68.769531 C 100.808594 68.769531 38.636719 130.941406 38.636719 207.632812 C 38.636719 284.328125 100.808594 346.5 177.503906 346.5 C 254.195312 346.5 316.367188 284.328125 316.367188 207.632812 C 316.367188 130.941406 254.195312 68.769531 177.503906 68.769531 " clip-rule="nonzero"/></clipPath><clipPath id="56fc3ded04"><path d="M 59.769531 46.5 L 337.5 46.5 L 337.5 324.230469 L 59.769531 324.230469 Z M 59.769531 46.5 " clip-rule="nonzero"/></clipPath><clipPath id="23411c56d0"><path d="M 198.632812 46.5 C 121.941406 46.5 59.769531 108.671875 59.769531 185.367188 C 59.769531 262.058594 121.941406 324.230469 198.632812 324.230469 C 275.328125 324.230469 337.5 262.058594 337.5 185.367188 C 337.5 108.671875 275.328125 46.5 198.632812 46.5 " clip-rule="nonzero"/></clipPath><clipPath id="01effe4fe6"><path d="M 48.632812 57.632812 L 326.367188 57.632812 L 326.367188 335.367188 L 48.632812 335.367188 Z M 48.632812 57.632812 " clip-rule="nonzero"/></clipPath><clipPath id="5565086b2f"><path d="M 187.5 57.632812 C 110.804688 57.632812 48.632812 119.804688 48.632812 196.5 C 48.632812 273.195312 110.804688 335.367188 187.5 335.367188 C 264.195312 335.367188 326.367188 273.195312 326.367188 196.5 C 326.367188 119.804688 264.195312 57.632812 187.5 57.632812 " clip-rule="nonzero"/></clipPath><clipPath id="e0674f8247"><path d="M 102 66 L 273 66 L 273 318 L 102 318 Z M 102 66 " clip-rule="nonzero"/></clipPath><clipPath id="4b5eceed47"><path d="M 53.789062 135.304688 L 179.664062 47.023438 L 320.917969 248.425781 L 195.042969 336.710938 Z M 53.789062 135.304688 " clip-rule="nonzero"/></clipPath><clipPath id="c2632c7b2a"><path d="M 53.789062 135.304688 L 179.664062 47.023438 L 320.917969 248.425781 L 195.042969 336.710938 Z M 53.789062 135.304688 " clip-rule="nonzero"/></clipPath><clipPath id="18418e1477"><path d="M 53.789062 135.304688 L 179.664062 47.023438 L 320.917969 248.425781 L 195.042969 336.710938 Z M 53.789062 135.304688 " clip-rule="nonzero"/></clipPath></defs><g clip-path="url(#8703e696e7)"><g clip-path="url(#511c28235c)"><path fill="#e31414" d="M 38.636719 68.769531 L 316.367188 68.769531 L 316.367188 346.5 L 38.636719 346.5 Z M 38.636719 68.769531 " fill-opacity="1" fill-rule="nonzero"/></g></g><g clip-path="url(#56fc3ded04)"><g clip-path="url(#23411c56d0)"><path fill="#e31414" d="M 59.769531 46.5 L 337.5 46.5 L 337.5 324.230469 L 59.769531 324.230469 Z M 59.769531 46.5 " fill-opacity="1" fill-rule="nonzero"/></g></g><g clip-path="url(#01effe4fe6)"><g clip-path="url(#5565086b2f)"><path fill="#ffffff" d="M 48.632812 57.632812 L 326.367188 57.632812 L 326.367188 335.367188 L 48.632812 335.367188 Z M 48.632812 57.632812 " fill-opacity="1" fill-rule="nonzero"/></g></g><g clip-path="url(#e0674f8247)"><g clip-path="url(#4b5eceed47)"><g clip-path="url(#c2632c7b2a)"><g clip-path="url(#18418e1477)"><path fill="#de0a17" d="M 212.496094 227.71875 C 192.738281 241.578125 165.460938 236.761719 151.574219 216.960938 C 137.6875 197.160156 142.449219 169.875 162.210938 156.015625 C 181.96875 142.15625 209.246094 146.972656 223.132812 166.769531 C 237.019531 186.570312 232.257812 213.859375 212.496094 227.71875 Z M 249.988281 147.292969 L 249.980469 147.300781 C 225.457031 112.832031 177.738281 104.523438 143.121094 128.800781 C 141.699219 129.800781 140.335938 130.851562 139 131.929688 C 138.269531 99.550781 149.300781 68.402344 152.546875 66.125 C 117.785156 90.503906 75.390625 166.109375 124.414062 236.007812 C 124.515625 236.152344 124.617188 236.292969 124.71875 236.4375 L 124.726562 236.433594 C 149.25 270.898438 196.96875 279.207031 231.585938 254.929688 C 233.007812 253.929688 234.371094 252.878906 235.707031 251.804688 C 236.4375 284.179688 225.40625 315.328125 222.160156 317.605469 C 256.921875 293.226562 299.316406 217.621094 250.292969 147.722656 C 250.191406 147.578125 250.089844 147.4375 249.988281 147.292969 " fill-opacity="1" fill-rule="nonzero"/></g></g></g></g><g fill="#000000" fill-opacity="0.302"><g transform="translate(46.473596, 195.985929)"><g><path d="M 55.570312 0 L 55.570312 -54.789062 L 43.046875 -54.789062 L 43.046875 -21.132812 L 18.785156 -54.789062 L 0.390625 -54.789062 L 0.390625 -42.265625 L 6.261719 -42.265625 L 6.261719 0 L 18.785156 0 L 18.785156 -33.578125 L 43.046875 0 Z M 55.570312 0 "/></g></g></g><g fill="#000000" fill-opacity="0.302"><g transform="translate(114.333737, 195.985929)"><g><path d="M 16.4375 0 L 16.4375 -54.789062 L 3.914062 -54.789062 L 3.914062 0 Z M 16.4375 0 "/></g></g></g><g fill="#000000" fill-opacity="0.302"><g transform="translate(143.059103, 195.985929)"><g><path d="M 34.515625 0 L 34.515625 -42.265625 L 56.121094 -42.265625 L 56.121094 -54.789062 L 0.390625 -54.789062 L 0.390625 -42.265625 L 21.992188 -42.265625 L 21.992188 0 Z M 34.515625 0 "/></g></g></g><g fill="#000000" fill-opacity="0.302"><g transform="translate(207.944994, 195.985929)"><g><path d="M 47.746094 -13.304688 L 55.570312 -21.132812 L 55.570312 -46.960938 L 47.746094 -54.789062 L 0.390625 -54.789062 L 0.390625 -42.265625 L 43.046875 -42.265625 L 43.046875 -25.828125 L 18.785156 -25.828125 L 18.785156 -38.351562 L 6.261719 -38.351562 L 6.261719 0 L 18.785156 0 L 18.785156 -13.304688 L 31.855469 -13.304688 C 35.769531 -8.84375 39.605469 -4.382812 43.597656 0 L 59.484375 0 C 55.492188 -4.382812 51.65625 -8.84375 47.746094 -13.304688 Z M 47.746094 -13.304688 "/></g></g></g><g fill="#000000" fill-opacity="0.302"><g transform="translate(276.58783, 195.985929)"><g><path d="M 53.222656 0 L 61.050781 -7.828125 L 61.050781 -46.960938 L 53.222656 -54.789062 L 11.742188 -54.789062 L 3.914062 -46.960938 L 3.914062 -7.828125 L 11.742188 0 Z M 48.527344 -12.523438 L 16.4375 -12.523438 L 16.4375 -42.265625 L 48.527344 -42.265625 Z M 48.527344 -12.523438 "/></g></g></g><g fill="#000000" fill-opacity="0.502"><g transform="translate(43.014352, 192.526687)"><g><path d="M 55.570312 0 L 55.570312 -54.789062 L 43.046875 -54.789062 L 43.046875 -21.132812 L 18.785156 -54.789062 L 0.390625 -54.789062 L 0.390625 -42.265625 L 6.261719 -42.265625 L 6.261719 0 L 18.785156 0 L 18.785156 -33.578125 L 43.046875 0 Z M 55.570312 0 "/></g></g></g><g fill="#000000" fill-opacity="0.502"><g transform="translate(110.874493, 192.526687)"><g><path d="M 16.4375 0 L 16.4375 -54.789062 L 3.914062 -54.789062 L 3.914062 0 Z M 16.4375 0 "/></g></g></g><g fill="#000000" fill-opacity="0.502"><g transform="translate(139.599859, 192.526687)"><g><path d="M 34.515625 0 L 34.515625 -42.265625 L 56.121094 -42.265625 L 56.121094 -54.789062 L 0.390625 -54.789062 L 0.390625 -42.265625 L 21.992188 -42.265625 L 21.992188 0 Z M 34.515625 0 "/></g></g></g><g fill="#000000" fill-opacity="0.502"><g transform="translate(204.48575, 192.526687)"><g><path d="M 47.746094 -13.304688 L 55.570312 -21.132812 L 55.570312 -46.960938 L 47.746094 -54.789062 L 0.390625 -54.789062 L 0.390625 -42.265625 L 43.046875 -42.265625 L 43.046875 -25.828125 L 18.785156 -25.828125 L 18.785156 -38.351562 L 6.261719 -38.351562 L 6.261719 0 L 18.785156 0 L 18.785156 -13.304688 L 31.855469 -13.304688 C 35.769531 -8.84375 39.605469 -4.382812 43.597656 0 L 59.484375 0 C 55.492188 -4.382812 51.65625 -8.84375 47.746094 -13.304688 Z M 47.746094 -13.304688 "/></g></g></g><g fill="#000000" fill-opacity="0.502"><g transform="translate(273.128586, 192.526687)"><g><path d="M 53.222656 0 L 61.050781 -7.828125 L 61.050781 -46.960938 L 53.222656 -54.789062 L 11.742188 -54.789062 L 3.914062 -46.960938 L 3.914062 -7.828125 L 11.742188 0 Z M 48.527344 -12.523438 L 16.4375 -12.523438 L 16.4375 -42.265625 L 48.527344 -42.265625 Z M 48.527344 -12.523438 "/></g></g></g><g fill="#000000" fill-opacity="1"><g transform="translate(39.555109, 189.067444)"><g><path d="M 55.570312 0 L 55.570312 -54.789062 L 43.046875 -54.789062 L 43.046875 -21.132812 L 18.785156 -54.789062 L 0.390625 -54.789062 L 0.390625 -42.265625 L 6.261719 -42.265625 L 6.261719 0 L 18.785156 0 L 18.785156 -33.578125 L 43.046875 0 Z M 55.570312 0 "/></g></g></g><g fill="#000000" fill-opacity="1"><g transform="translate(107.41525, 189.067444)"><g><path d="M 16.4375 0 L 16.4375 -54.789062 L 3.914062 -54.789062 L 3.914062 0 Z M 16.4375 0 "/></g></g></g><g fill="#000000" fill-opacity="1"><g transform="translate(136.140616, 189.067444)"><g><path d="M 34.515625 0 L 34.515625 -42.265625 L 56.121094 -42.265625 L 56.121094 -54.789062 L 0.390625 -54.789062 L 0.390625 -42.265625 L 21.992188 -42.265625 L 21.992188 0 Z M 34.515625 0 "/></g></g></g><g fill="#000000" fill-opacity="1"><g transform="translate(201.026506, 189.067444)"><g><path d="M 47.746094 -13.304688 L 55.570312 -21.132812 L 55.570312 -46.960938 L 47.746094 -54.789062 L 0.390625 -54.789062 L 0.390625 -42.265625 L 43.046875 -42.265625 L 43.046875 -25.828125 L 18.785156 -25.828125 L 18.785156 -38.351562 L 6.261719 -38.351562 L 6.261719 0 L 18.785156 0 L 18.785156 -13.304688 L 31.855469 -13.304688 C 35.769531 -8.84375 39.605469 -4.382812 43.597656 0 L 59.484375 0 C 55.492188 -4.382812 51.65625 -8.84375 47.746094 -13.304688 Z M 47.746094 -13.304688 "/></g></g></g><g fill="#000000" fill-opacity="1"><g transform="translate(269.669343, 189.067444)"><g><path d="M 53.222656 0 L 61.050781 -7.828125 L 61.050781 -46.960938 L 53.222656 -54.789062 L 11.742188 -54.789062 L 3.914062 -46.960938 L 3.914062 -7.828125 L 11.742188 0 Z M 48.527344 -12.523438 L 16.4375 -12.523438 L 16.4375 -42.265625 L 48.527344 -42.265625 Z M 48.527344 -12.523438 "/></g></g></g><g fill="#000000" fill-opacity="0.302"><g transform="translate(13.989223, 265.735924)"><g><path d="M 51.265625 0 L 59.09375 -7.828125 L 59.09375 -27.394531 L 51.265625 -35.222656 L 19.566406 -35.222656 L 19.566406 -39.136719 L 59.09375 -39.136719 L 59.09375 -54.789062 L 11.742188 -54.789062 L 3.914062 -46.960938 L 3.914062 -27.394531 L 11.742188 -19.566406 L 43.441406 -19.566406 L 43.441406 -15.652344 L 3.914062 -15.652344 L 3.914062 0 Z M 51.265625 0 "/></g></g></g><g fill="#000000" fill-opacity="0.302"><g transform="translate(85.371489, 265.735924)"><g><path d="M 37.648438 0 L 37.648438 -39.136719 L 59.25 -39.136719 L 59.25 -54.789062 L 0.390625 -54.789062 L 0.390625 -39.136719 L 21.992188 -39.136719 L 21.992188 0 Z M 37.648438 0 "/></g></g></g><g fill="#000000" fill-opacity="0.302"><g transform="translate(153.388163, 265.735924)"><g><path d="M 56.355469 0 L 64.179688 -7.828125 L 64.179688 -46.960938 L 56.355469 -54.789062 L 11.742188 -54.789062 L 3.914062 -46.960938 L 3.914062 -7.828125 L 11.742188 0 Z M 48.527344 -15.652344 L 19.566406 -15.652344 L 19.566406 -39.136719 L 48.527344 -39.136719 Z M 48.527344 -15.652344 "/></g></g></g><g fill="#000000" fill-opacity="0.302"><g transform="translate(229.857945, 265.735924)"><g><path d="M 62.617188 0 L 50.875 -11.742188 L 58.703125 -19.566406 L 58.703125 -46.960938 L 50.875 -54.789062 L 0.390625 -54.789062 L 0.390625 -39.136719 L 43.046875 -39.136719 L 43.046875 -27.394531 L 21.914062 -27.394531 L 21.914062 -35.222656 L 6.261719 -35.222656 L 6.261719 0 L 21.914062 0 L 21.914062 -11.742188 L 31.855469 -11.742188 L 43.597656 0 Z M 62.617188 0 "/></g></g></g><g fill="#000000" fill-opacity="0.302"><g transform="translate(301.631554, 265.735924)"><g><path d="M 68.484375 0 L 68.484375 -54.789062 L 52.832031 -54.789062 L 37.335938 -33.890625 L 21.914062 -54.789062 L 0.390625 -54.789062 L 0.390625 -39.136719 L 6.261719 -39.136719 L 6.261719 0 L 21.914062 0 L 21.914062 -28.570312 L 37.335938 -7.671875 L 52.832031 -28.570312 L 52.832031 0 Z M 68.484375 0 "/></g></g></g><g fill="#000000" fill-opacity="0.502"><g transform="translate(10.529979, 262.276682)"><g><path d="M 51.265625 0 L 59.09375 -7.828125 L 59.09375 -27.394531 L 51.265625 -35.222656 L 19.566406 -35.222656 L 19.566406 -39.136719 L 59.09375 -39.136719 L 59.09375 -54.789062 L 11.742188 -54.789062 L 3.914062 -46.960938 L 3.914062 -27.394531 L 11.742188 -19.566406 L 43.441406 -19.566406 L 43.441406 -15.652344 L 3.914062 -15.652344 L 3.914062 0 Z M 51.265625 0 "/></g></g></g><g fill="#000000" fill-opacity="0.502"><g transform="translate(81.912245, 262.276682)"><g><path d="M 37.648438 0 L 37.648438 -39.136719 L 59.25 -39.136719 L 59.25 -54.789062 L 0.390625 -54.789062 L 0.390625 -39.136719 L 21.992188 -39.136719 L 21.992188 0 Z M 37.648438 0 "/></g></g></g><g fill="#000000" fill-opacity="0.502"><g transform="translate(149.928919, 262.276682)"><g><path d="M 56.355469 0 L 64.179688 -7.828125 L 64.179688 -46.960938 L 56.355469 -54.789062 L 11.742188 -54.789062 L 3.914062 -46.960938 L 3.914062 -7.828125 L 11.742188 0 Z M 48.527344 -15.652344 L 19.566406 -15.652344 L 19.566406 -39.136719 L 48.527344 -39.136719 Z M 48.527344 -15.652344 "/></g></g></g><g fill="#000000" fill-opacity="0.502"><g transform="translate(226.398701, 262.276682)"><g><path d="M 62.617188 0 L 50.875 -11.742188 L 58.703125 -19.566406 L 58.703125 -46.960938 L 50.875 -54.789062 L 0.390625 -54.789062 L 0.390625 -39.136719 L 43.046875 -39.136719 L 43.046875 -27.394531 L 21.914062 -27.394531 L 21.914062 -35.222656 L 6.261719 -35.222656 L 6.261719 0 L 21.914062 0 L 21.914062 -11.742188 L 31.855469 -11.742188 L 43.597656 0 Z M 62.617188 0 "/></g></g></g><g fill="#000000" fill-opacity="0.502"><g transform="translate(298.17231, 262.276682)"><g><path d="M 68.484375 0 L 68.484375 -54.789062 L 52.832031 -54.789062 L 37.335938 -33.890625 L 21.914062 -54.789062 L 0.390625 -54.789062 L 0.390625 -39.136719 L 6.261719 -39.136719 L 6.261719 0 L 21.914062 0 L 21.914062 -28.570312 L 37.335938 -7.671875 L 52.832031 -28.570312 L 52.832031 0 Z M 68.484375 0 "/></g></g></g><g fill="#000000" fill-opacity="1"><g transform="translate(7.070736, 258.81744)"><g><path d="M 51.265625 0 L 59.09375 -7.828125 L 59.09375 -27.394531 L 51.265625 -35.222656 L 19.566406 -35.222656 L 19.566406 -39.136719 L 59.09375 -39.136719 L 59.09375 -54.789062 L 11.742188 -54.789062 L 3.914062 -46.960938 L 3.914062 -27.394531 L 11.742188 -19.566406 L 43.441406 -19.566406 L 43.441406 -15.652344 L 3.914062 -15.652344 L 3.914062 0 Z M 51.265625 0 "/></g></g></g><g fill="#000000" fill-opacity="1"><g transform="translate(78.453002, 258.81744)"><g><path d="M 37.648438 0 L 37.648438 -39.136719 L 59.25 -39.136719 L 59.25 -54.789062 L 0.390625 -54.789062 L 0.390625 -39.136719 L 21.992188 -39.136719 L 21.992188 0 Z M 37.648438 0 "/></g></g></g><g fill="#000000" fill-opacity="1"><g transform="translate(146.469675, 258.81744)"><g><path d="M 56.355469 0 L 64.179688 -7.828125 L 64.179688 -46.960938 L 56.355469 -54.789062 L 11.742188 -54.789062 L 3.914062 -46.960938 L 3.914062 -7.828125 L 11.742188 0 Z M 48.527344 -15.652344 L 19.566406 -15.652344 L 19.566406 -39.136719 L 48.527344 -39.136719 Z M 48.527344 -15.652344 "/></g></g></g><g fill="#000000" fill-opacity="1"><g transform="translate(222.939458, 258.81744)"><g><path d="M 62.617188 0 L 50.875 -11.742188 L 58.703125 -19.566406 L 58.703125 -46.960938 L 50.875 -54.789062 L 0.390625 -54.789062 L 0.390625 -39.136719 L 43.046875 -39.136719 L 43.046875 -27.394531 L 21.914062 -27.394531 L 21.914062 -35.222656 L 6.261719 -35.222656 L 6.261719 0 L 21.914062 0 L 21.914062 -11.742188 L 31.855469 -11.742188 L 43.597656 0 Z M 62.617188 0 "/></g></g></g><g fill="#000000" fill-opacity="1"><g transform="translate(294.713067, 258.81744)"><g><path d="M 68.484375 0 L 68.484375 -54.789062 L 52.832031 -54.789062 L 37.335938 -33.890625 L 21.914062 -54.789062 L 0.390625 -54.789062 L 0.390625 -39.136719 L 6.261719 -39.136719 L 6.261719 0 L 21.914062 0 L 21.914062 -28.570312 L 37.335938 -7.671875 L 52.832031 -28.570312 L 52.832031 0 Z M 68.484375 0 "/></g></g></g><g fill="#000000" fill-opacity="0.302"><g transform="translate(146.496813, 293.067082)"><g><path d="M 12.445312 0 L 14.34375 -1.898438 L 14.34375 -8.167969 L 8.074219 -8.167969 L 8.074219 -5.128906 L 11.304688 -5.128906 L 11.304688 -3.039062 L 3.988281 -3.039062 L 3.988281 -10.257812 L 12.917969 -10.257812 L 12.917969 -13.296875 L 2.851562 -13.296875 L 0.949219 -11.398438 L 0.949219 -1.898438 L 2.851562 0 Z M 12.445312 0 "/></g></g></g><g fill="#000000" fill-opacity="0.302"><g transform="translate(163.821706, 293.067082)"><g><path d="M 14.34375 0 L 14.34375 -11.398438 L 12.445312 -13.296875 L 1.425781 -13.296875 L 1.425781 -10.257812 L 11.304688 -10.257812 L 11.304688 -8.167969 L 2.851562 -8.167969 L 0.949219 -6.269531 L 0.949219 -1.898438 L 2.851562 0 L 10.355469 0 L 10.355469 -3.039062 L 3.988281 -3.039062 L 3.988281 -5.128906 L 11.304688 -5.128906 L 11.304688 -1.898438 L 13.203125 0 Z M 14.34375 0 "/></g></g></g><g fill="#000000" fill-opacity="0.302"><g transform="translate(181.146599, 293.067082)"><g><path d="M 4.464844 -13.296875 L 0.09375 -13.296875 L 0.09375 -10.257812 L 1.519531 -10.257812 L 1.519531 0 L 4.558594 0 L 4.558594 -8.113281 C 5.925781 -6.25 7.296875 -4.386719 8.683594 -2.527344 C 10.050781 -4.386719 11.4375 -6.25 12.824219 -8.113281 L 12.824219 0 L 15.863281 0 L 15.863281 -13.296875 L 12.917969 -13.296875 C 11.492188 -11.398438 10.085938 -9.480469 8.683594 -7.578125 Z M 4.464844 -13.296875 "/></g></g></g><g fill="#000000" fill-opacity="0.302"><g transform="translate(199.991175, 293.067082)"><g><path d="M 13.867188 0 L 13.867188 -3.039062 L 3.988281 -3.039062 L 3.988281 -10.257812 L 11.304688 -10.257812 L 11.304688 -7.980469 L 4.9375 -7.980469 L 4.9375 -4.9375 L 12.445312 -4.9375 L 14.34375 -6.839844 L 14.34375 -11.398438 L 12.445312 -13.296875 L 2.851562 -13.296875 L 0.949219 -11.398438 L 0.949219 -1.898438 L 2.851562 0 Z M 13.867188 0 "/></g></g></g><g fill="#000000" fill-opacity="0.302"><g transform="translate(217.316069, 293.067082)"><g><path d="M 11.683594 0 L 13.582031 -1.898438 L 13.582031 -6.269531 L 11.683594 -8.167969 L 3.988281 -8.167969 L 3.988281 -10.257812 L 13.582031 -10.257812 L 13.582031 -13.296875 L 2.851562 -13.296875 L 0.949219 -11.398438 L 0.949219 -7.027344 L 2.851562 -5.128906 L 10.542969 -5.128906 L 10.542969 -3.039062 L 0.949219 -3.039062 L 0.949219 0 Z M 11.683594 0 "/></g></g></g><g fill="#000000" fill-opacity="0.502"><g transform="translate(145.657118, 292.227403)"><g><path d="M 12.445312 0 L 14.34375 -1.898438 L 14.34375 -8.167969 L 8.074219 -8.167969 L 8.074219 -5.128906 L 11.304688 -5.128906 L 11.304688 -3.039062 L 3.988281 -3.039062 L 3.988281 -10.257812 L 12.917969 -10.257812 L 12.917969 -13.296875 L 2.851562 -13.296875 L 0.949219 -11.398438 L 0.949219 -1.898438 L 2.851562 0 Z M 12.445312 0 "/></g></g></g><g fill="#000000" fill-opacity="0.502"><g transform="translate(162.982011, 292.227403)"><g><path d="M 14.34375 0 L 14.34375 -11.398438 L 12.445312 -13.296875 L 1.425781 -13.296875 L 1.425781 -10.257812 L 11.304688 -10.257812 L 11.304688 -8.167969 L 2.851562 -8.167969 L 0.949219 -6.269531 L 0.949219 -1.898438 L 2.851562 0 L 10.355469 0 L 10.355469 -3.039062 L 3.988281 -3.039062 L 3.988281 -5.128906 L 11.304688 -5.128906 L 11.304688 -1.898438 L 13.203125 0 Z M 14.34375 0 "/></g></g></g><g fill="#000000" fill-opacity="0.502"><g transform="translate(180.306905, 292.227403)"><g><path d="M 4.464844 -13.296875 L 0.09375 -13.296875 L 0.09375 -10.257812 L 1.519531 -10.257812 L 1.519531 0 L 4.558594 0 L 4.558594 -8.113281 C 5.925781 -6.25 7.296875 -4.386719 8.683594 -2.527344 C 10.050781 -4.386719 11.4375 -6.25 12.824219 -8.113281 L 12.824219 0 L 15.863281 0 L 15.863281 -13.296875 L 12.917969 -13.296875 C 11.492188 -11.398438 10.085938 -9.480469 8.683594 -7.578125 Z M 4.464844 -13.296875 "/></g></g></g><g fill="#000000" fill-opacity="0.502"><g transform="translate(199.15148, 292.227403)"><g><path d="M 13.867188 0 L 13.867188 -3.039062 L 3.988281 -3.039062 L 3.988281 -10.257812 L 11.304688 -10.257812 L 11.304688 -7.980469 L 4.9375 -7.980469 L 4.9375 -4.9375 L 12.445312 -4.9375 L 14.34375 -6.839844 L 14.34375 -11.398438 L 12.445312 -13.296875 L 2.851562 -13.296875 L 0.949219 -11.398438 L 0.949219 -1.898438 L 2.851562 0 Z M 13.867188 0 "/></g></g></g><g fill="#000000" fill-opacity="0.502"><g transform="translate(216.476374, 292.227403)"><g><path d="M 11.683594 0 L 13.582031 -1.898438 L 13.582031 -6.269531 L 11.683594 -8.167969 L 3.988281 -8.167969 L 3.988281 -10.257812 L 13.582031 -10.257812 L 13.582031 -13.296875 L 2.851562 -13.296875 L 0.949219 -11.398438 L 0.949219 -7.027344 L 2.851562 -5.128906 L 10.542969 -5.128906 L 10.542969 -3.039062 L 0.949219 -3.039062 L 0.949219 0 Z M 11.683594 0 "/></g></g></g><g fill="#000000" fill-opacity="1"><g transform="translate(144.817424, 291.387696)"><g><path d="M 12.445312 0 L 14.34375 -1.898438 L 14.34375 -8.167969 L 8.074219 -8.167969 L 8.074219 -5.128906 L 11.304688 -5.128906 L 11.304688 -3.039062 L 3.988281 -3.039062 L 3.988281 -10.257812 L 12.917969 -10.257812 L 12.917969 -13.296875 L 2.851562 -13.296875 L 0.949219 -11.398438 L 0.949219 -1.898438 L 2.851562 0 Z M 12.445312 0 "/></g></g></g><g fill="#000000" fill-opacity="1"><g transform="translate(162.142317, 291.387696)"><g><path d="M 14.34375 0 L 14.34375 -11.398438 L 12.445312 -13.296875 L 1.425781 -13.296875 L 1.425781 -10.257812 L 11.304688 -10.257812 L 11.304688 -8.167969 L 2.851562 -8.167969 L 0.949219 -6.269531 L 0.949219 -1.898438 L 2.851562 0 L 10.355469 0 L 10.355469 -3.039062 L 3.988281 -3.039062 L 3.988281 -5.128906 L 11.304688 -5.128906 L 11.304688 -1.898438 L 13.203125 0 Z M 14.34375 0 "/></g></g></g><g fill="#000000" fill-opacity="1"><g transform="translate(179.46721, 291.387696)"><g><path d="M 4.464844 -13.296875 L 0.09375 -13.296875 L 0.09375 -10.257812 L 1.519531 -10.257812 L 1.519531 0 L 4.558594 0 L 4.558594 -8.113281 C 5.925781 -6.25 7.296875 -4.386719 8.683594 -2.527344 C 10.050781 -4.386719 11.4375 -6.25 12.824219 -8.113281 L 12.824219 0 L 15.863281 0 L 15.863281 -13.296875 L 12.917969 -13.296875 C 11.492188 -11.398438 10.085938 -9.480469 8.683594 -7.578125 Z M 4.464844 -13.296875 "/></g></g></g><g fill="#000000" fill-opacity="1"><g transform="translate(198.311785, 291.387696)"><g><path d="M 13.867188 0 L 13.867188 -3.039062 L 3.988281 -3.039062 L 3.988281 -10.257812 L 11.304688 -10.257812 L 11.304688 -7.980469 L 4.9375 -7.980469 L 4.9375 -4.9375 L 12.445312 -4.9375 L 14.34375 -6.839844 L 14.34375 -11.398438 L 12.445312 -13.296875 L 2.851562 -13.296875 L 0.949219 -11.398438 L 0.949219 -1.898438 L 2.851562 0 Z M 13.867188 0 "/></g></g></g><g fill="#000000" fill-opacity="1"><g transform="translate(215.63668, 291.387696)"><g><path d="M 11.683594 0 L 13.582031 -1.898438 L 13.582031 -6.269531 L 11.683594 -8.167969 L 3.988281 -8.167969 L 3.988281 -10.257812 L 13.582031 -10.257812 L 13.582031 -13.296875 L 2.851562 -13.296875 L 0.949219 -11.398438 L 0.949219 -7.027344 L 2.851562 -5.128906 L 10.542969 -5.128906 L 10.542969 -3.039062 L 0.949219 -3.039062 L 0.949219 0 Z M 11.683594 0 "/></g></g></g></svg>