<svg xmlns="http://www.w3.org/2000/svg" xmlns:xlink="http://www.w3.org/1999/xlink" width="500" zoomAndPan="magnify" viewBox="0 0 375 374.999991" height="500" preserveAspectRatio="xMidYMid meet" version="1.0"><defs><g/><clipPath id="64b14426c9"><path d="M 38.636719 68.769531 L 316.367188 68.769531 L 316.367188 346.5 L 38.636719 346.5 Z M 38.636719 68.769531 " clip-rule="nonzero"/></clipPath><clipPath id="2c5767ed7d"><path d="M 177.503906 68.769531 C 100.808594 68.769531 38.636719 130.941406 38.636719 207.632812 C 38.636719 284.328125 100.808594 346.5 177.503906 346.5 C 254.195312 346.5 316.367188 284.328125 316.367188 207.632812 C 316.367188 130.941406 254.195312 68.769531 177.503906 68.769531 " clip-rule="nonzero"/></clipPath><clipPath id="9ab5bcc376"><path d="M 59.769531 46.5 L 337.5 46.5 L 337.5 324.230469 L 59.769531 324.230469 Z M 59.769531 46.5 " clip-rule="nonzero"/></clipPath><clipPath id="4c4670eef9"><path d="M 198.632812 46.5 C 121.941406 46.5 59.769531 108.671875 59.769531 185.367188 C 59.769531 262.058594 121.941406 324.230469 198.632812 324.230469 C 275.328125 324.230469 337.5 262.058594 337.5 185.367188 C 337.5 108.671875 275.328125 46.5 198.632812 46.5 " clip-rule="nonzero"/></clipPath><clipPath id="3205ec0213"><path d="M 48.632812 57.632812 L 326.367188 57.632812 L 326.367188 335.367188 L 48.632812 335.367188 Z M 48.632812 57.632812 " clip-rule="nonzero"/></clipPath><clipPath id="a8fe53f84b"><path d="M 187.5 57.632812 C 110.804688 57.632812 48.632812 119.804688 48.632812 196.5 C 48.632812 273.195312 110.804688 335.367188 187.5 335.367188 C 264.195312 335.367188 326.367188 273.195312 326.367188 196.5 C 326.367188 119.804688 264.195312 57.632812 187.5 57.632812 " clip-rule="nonzero"/></clipPath><clipPath id="3de7aceb37"><path d="M 102 66 L 273 66 L 273 318 L 102 318 Z M 102 66 " clip-rule="nonzero"/></clipPath><clipPath id="21473a6bdc"><path d="M 53.789062 135.304688 L 179.664062 47.023438 L 320.917969 248.425781 L 195.042969 336.710938 Z M 53.789062 135.304688 " clip-rule="nonzero"/></clipPath><clipPath id="22f427e388"><path d="M 53.789062 135.304688 L 179.664062 47.023438 L 320.917969 248.425781 L 195.042969 336.710938 Z M 53.789062 135.304688 " clip-rule="nonzero"/></clipPath><clipPath id="9da3af3398"><path d="M 53.789062 135.304688 L 179.664062 47.023438 L 320.917969 248.425781 L 195.042969 336.710938 Z M 53.789062 135.304688 " clip-rule="nonzero"/></clipPath></defs><g clip-path="url(#64b14426c9)"><g clip-path="url(#2c5767ed7d)"><path fill="#000000" d="M 38.636719 68.769531 L 316.367188 68.769531 L 316.367188 346.5 L 38.636719 346.5 Z M 38.636719 68.769531 " fill-opacity="1" fill-rule="nonzero"/></g></g><g clip-path="url(#9ab5bcc376)"><g clip-path="url(#4c4670eef9)"><path fill="#e31414" d="M 59.769531 46.5 L 337.5 46.5 L 337.5 324.230469 L 59.769531 324.230469 Z M 59.769531 46.5 " fill-opacity="1" fill-rule="nonzero"/></g></g><g clip-path="url(#3205ec0213)"><g clip-path="url(#a8fe53f84b)"><path fill="#ffffff" d="M 48.632812 57.632812 L 326.367188 57.632812 L 326.367188 335.367188 L 48.632812 335.367188 Z M 48.632812 57.632812 " fill-opacity="1" fill-rule="nonzero"/></g></g><g clip-path="url(#3de7aceb37)"><g clip-path="url(#21473a6bdc)"><g clip-path="url(#22f427e388)"><g clip-path="url(#9da3af3398)"><path fill="#de0a17" d="M 212.496094 227.71875 C 192.738281 241.578125 165.460938 236.761719 151.574219 216.960938 C 137.6875 197.160156 142.449219 169.875 162.210938 156.015625 C 181.96875 142.15625 209.246094 146.972656 223.132812 166.769531 C 237.019531 186.570312 232.257812 213.859375 212.496094 227.71875 Z M 249.988281 147.292969 L 249.980469 147.300781 C 225.457031 112.832031 177.738281 104.523438 143.121094 128.800781 C 141.699219 129.800781 140.335938 130.851562 139 131.929688 C 138.269531 99.550781 149.300781 68.402344 152.546875 66.125 C 117.785156 90.503906 75.390625 166.109375 124.414062 236.007812 C 124.515625 236.152344 124.617188 236.292969 124.71875 236.4375 L 124.726562 236.433594 C 149.25 270.898438 196.96875 279.207031 231.585938 254.929688 C 233.007812 253.929688 234.371094 252.878906 235.707031 251.804688 C 236.4375 284.179688 225.40625 315.328125 222.160156 317.605469 C 256.921875 293.226562 299.316406 217.621094 250.292969 147.722656 C 250.191406 147.578125 250.089844 147.4375 249.988281 147.292969 " fill-opacity="1" fill-rule="nonzero"/></g></g></g></g><g fill="#000000" fill-opacity="0.302"><g transform="translate(46.482988, 195.220563)"><g><path d="M 55.574219 0 L 55.574219 -54.792969 L 43.050781 -54.792969 L 43.050781 -21.132812 L 18.785156 -54.792969 L 0.390625 -54.792969 L 0.390625 -42.269531 L 6.261719 -42.269531 L 6.261719 0 L 18.785156 0 L 18.785156 -33.578125 L 43.050781 0 Z M 55.574219 0 "/></g></g></g><g fill="#000000" fill-opacity="0.302"><g transform="translate(114.339499, 195.220563)"><g><path d="M 16.4375 0 L 16.4375 -54.792969 L 3.914062 -54.792969 L 3.914062 0 Z M 16.4375 0 "/></g></g></g><g fill="#000000" fill-opacity="0.302"><g transform="translate(143.063653, 195.220563)"><g><path d="M 34.519531 0 L 34.519531 -42.269531 L 56.121094 -42.269531 L 56.121094 -54.792969 L 0.390625 -54.792969 L 0.390625 -42.269531 L 21.996094 -42.269531 L 21.996094 0 Z M 34.519531 0 "/></g></g></g><g fill="#000000" fill-opacity="0.302"><g transform="translate(207.946109, 195.220563)"><g><path d="M 47.746094 -13.304688 L 55.574219 -21.132812 L 55.574219 -46.964844 L 47.746094 -54.792969 L 0.390625 -54.792969 L 0.390625 -42.269531 L 43.050781 -42.269531 L 43.050781 -25.832031 L 18.785156 -25.832031 L 18.785156 -38.355469 L 6.261719 -38.355469 L 6.261719 0 L 18.785156 0 L 18.785156 -13.304688 L 31.859375 -13.304688 C 35.769531 -8.84375 39.605469 -4.382812 43.597656 0 L 59.488281 0 C 55.496094 -4.382812 51.660156 -8.84375 47.746094 -13.304688 Z M 47.746094 -13.304688 "/></g></g></g><g fill="#000000" fill-opacity="0.302"><g transform="translate(276.585262, 195.220563)"><g><path d="M 53.226562 0 L 61.054688 -7.828125 L 61.054688 -46.964844 L 53.226562 -54.792969 L 11.742188 -54.792969 L 3.914062 -46.964844 L 3.914062 -7.828125 L 11.742188 0 Z M 48.53125 -12.523438 L 16.4375 -12.523438 L 16.4375 -42.269531 L 48.53125 -42.269531 Z M 48.53125 -12.523438 "/></g></g></g><g fill="#000000" fill-opacity="0.502"><g transform="translate(43.023733, 191.761304)"><g><path d="M 55.574219 0 L 55.574219 -54.792969 L 43.050781 -54.792969 L 43.050781 -21.132812 L 18.785156 -54.792969 L 0.390625 -54.792969 L 0.390625 -42.269531 L 6.261719 -42.269531 L 6.261719 0 L 18.785156 0 L 18.785156 -33.578125 L 43.050781 0 Z M 55.574219 0 "/></g></g></g><g fill="#000000" fill-opacity="0.502"><g transform="translate(110.880244, 191.761304)"><g><path d="M 16.4375 0 L 16.4375 -54.792969 L 3.914062 -54.792969 L 3.914062 0 Z M 16.4375 0 "/></g></g></g><g fill="#000000" fill-opacity="0.502"><g transform="translate(139.604397, 191.761304)"><g><path d="M 34.519531 0 L 34.519531 -42.269531 L 56.121094 -42.269531 L 56.121094 -54.792969 L 0.390625 -54.792969 L 0.390625 -42.269531 L 21.996094 -42.269531 L 21.996094 0 Z M 34.519531 0 "/></g></g></g><g fill="#000000" fill-opacity="0.502"><g transform="translate(204.486853, 191.761304)"><g><path d="M 47.746094 -13.304688 L 55.574219 -21.132812 L 55.574219 -46.964844 L 47.746094 -54.792969 L 0.390625 -54.792969 L 0.390625 -42.269531 L 43.050781 -42.269531 L 43.050781 -25.832031 L 18.785156 -25.832031 L 18.785156 -38.355469 L 6.261719 -38.355469 L 6.261719 0 L 18.785156 0 L 18.785156 -13.304688 L 31.859375 -13.304688 C 35.769531 -8.84375 39.605469 -4.382812 43.597656 0 L 59.488281 0 C 55.496094 -4.382812 51.660156 -8.84375 47.746094 -13.304688 Z M 47.746094 -13.304688 "/></g></g></g><g fill="#000000" fill-opacity="0.502"><g transform="translate(273.126006, 191.761304)"><g><path d="M 53.226562 0 L 61.054688 -7.828125 L 61.054688 -46.964844 L 53.226562 -54.792969 L 11.742188 -54.792969 L 3.914062 -46.964844 L 3.914062 -7.828125 L 11.742188 0 Z M 48.53125 -12.523438 L 16.4375 -12.523438 L 16.4375 -42.269531 L 48.53125 -42.269531 Z M 48.53125 -12.523438 "/></g></g></g><g fill="#000000" fill-opacity="1"><g transform="translate(39.564477, 188.302048)"><g><path d="M 55.574219 0 L 55.574219 -54.792969 L 43.050781 -54.792969 L 43.050781 -21.132812 L 18.785156 -54.792969 L 0.390625 -54.792969 L 0.390625 -42.269531 L 6.261719 -42.269531 L 6.261719 0 L 18.785156 0 L 18.785156 -33.578125 L 43.050781 0 Z M 55.574219 0 "/></g></g></g><g fill="#000000" fill-opacity="1"><g transform="translate(107.420988, 188.302048)"><g><path d="M 16.4375 0 L 16.4375 -54.792969 L 3.914062 -54.792969 L 3.914062 0 Z M 16.4375 0 "/></g></g></g><g fill="#000000" fill-opacity="1"><g transform="translate(136.145142, 188.302048)"><g><path d="M 34.519531 0 L 34.519531 -42.269531 L 56.121094 -42.269531 L 56.121094 -54.792969 L 0.390625 -54.792969 L 0.390625 -42.269531 L 21.996094 -42.269531 L 21.996094 0 Z M 34.519531 0 "/></g></g></g><g fill="#000000" fill-opacity="1"><g transform="translate(201.027598, 188.302048)"><g><path d="M 47.746094 -13.304688 L 55.574219 -21.132812 L 55.574219 -46.964844 L 47.746094 -54.792969 L 0.390625 -54.792969 L 0.390625 -42.269531 L 43.050781 -42.269531 L 43.050781 -25.832031 L 18.785156 -25.832031 L 18.785156 -38.355469 L 6.261719 -38.355469 L 6.261719 0 L 18.785156 0 L 18.785156 -13.304688 L 31.859375 -13.304688 C 35.769531 -8.84375 39.605469 -4.382812 43.597656 0 L 59.488281 0 C 55.496094 -4.382812 51.660156 -8.84375 47.746094 -13.304688 Z M 47.746094 -13.304688 "/></g></g></g><g fill="#000000" fill-opacity="1"><g transform="translate(269.666751, 188.302048)"><g><path d="M 53.226562 0 L 61.054688 -7.828125 L 61.054688 -46.964844 L 53.226562 -54.792969 L 11.742188 -54.792969 L 3.914062 -46.964844 L 3.914062 -7.828125 L 11.742188 0 Z M 48.53125 -12.523438 L 16.4375 -12.523438 L 16.4375 -42.269531 L 48.53125 -42.269531 Z M 48.53125 -12.523438 "/></g></g></g><g fill="#000000" fill-opacity="0.302"><g transform="translate(13.998648, 264.90306)"><g><path d="M 51.269531 0 L 59.097656 -7.828125 L 59.097656 -27.394531 L 51.269531 -35.222656 L 19.570312 -35.222656 L 19.570312 -39.136719 L 59.097656 -39.136719 L 59.097656 -54.792969 L 11.742188 -54.792969 L 3.914062 -46.964844 L 3.914062 -27.394531 L 11.742188 -19.570312 L 43.441406 -19.570312 L 43.441406 -15.65625 L 3.914062 -15.65625 L 3.914062 0 Z M 51.269531 0 "/></g></g></g><g fill="#000000" fill-opacity="0.302"><g transform="translate(85.377074, 264.90306)"><g><path d="M 37.648438 0 L 37.648438 -39.136719 L 59.253906 -39.136719 L 59.253906 -54.792969 L 0.390625 -54.792969 L 0.390625 -39.136719 L 21.996094 -39.136719 L 21.996094 0 Z M 37.648438 0 "/></g></g></g><g fill="#000000" fill-opacity="0.302"><g transform="translate(153.390111, 264.90306)"><g><path d="M 56.355469 0 L 64.183594 -7.828125 L 64.183594 -46.964844 L 56.355469 -54.792969 L 11.742188 -54.792969 L 3.914062 -46.964844 L 3.914062 -7.828125 L 11.742188 0 Z M 48.53125 -15.65625 L 19.570312 -15.65625 L 19.570312 -39.136719 L 48.53125 -39.136719 Z M 48.53125 -15.65625 "/></g></g></g><g fill="#000000" fill-opacity="0.302"><g transform="translate(229.855724, 264.90306)"><g><path d="M 62.621094 0 L 50.878906 -11.742188 L 58.707031 -19.570312 L 58.707031 -46.964844 L 50.878906 -54.792969 L 0.390625 -54.792969 L 0.390625 -39.136719 L 43.050781 -39.136719 L 43.050781 -27.394531 L 21.917969 -27.394531 L 21.917969 -35.222656 L 6.261719 -35.222656 L 6.261719 0 L 21.917969 0 L 21.917969 -11.742188 L 31.859375 -11.742188 L 43.597656 0 Z M 62.621094 0 "/></g></g></g><g fill="#000000" fill-opacity="0.302"><g transform="translate(301.625484, 264.90306)"><g><path d="M 68.488281 0 L 68.488281 -54.792969 L 52.835938 -54.792969 L 37.335938 -33.894531 L 21.917969 -54.792969 L 0.390625 -54.792969 L 0.390625 -39.136719 L 6.261719 -39.136719 L 6.261719 0 L 21.917969 0 L 21.917969 -28.570312 L 37.335938 -7.671875 L 52.835938 -28.570312 L 52.835938 0 Z M 68.488281 0 "/></g></g></g><g fill="#000000" fill-opacity="0.502"><g transform="translate(10.539392, 261.443801)"><g><path d="M 51.269531 0 L 59.097656 -7.828125 L 59.097656 -27.394531 L 51.269531 -35.222656 L 19.570312 -35.222656 L 19.570312 -39.136719 L 59.097656 -39.136719 L 59.097656 -54.792969 L 11.742188 -54.792969 L 3.914062 -46.964844 L 3.914062 -27.394531 L 11.742188 -19.570312 L 43.441406 -19.570312 L 43.441406 -15.65625 L 3.914062 -15.65625 L 3.914062 0 Z M 51.269531 0 "/></g></g></g><g fill="#000000" fill-opacity="0.502"><g transform="translate(81.917818, 261.443801)"><g><path d="M 37.648438 0 L 37.648438 -39.136719 L 59.253906 -39.136719 L 59.253906 -54.792969 L 0.390625 -54.792969 L 0.390625 -39.136719 L 21.996094 -39.136719 L 21.996094 0 Z M 37.648438 0 "/></g></g></g><g fill="#000000" fill-opacity="0.502"><g transform="translate(149.930856, 261.443801)"><g><path d="M 56.355469 0 L 64.183594 -7.828125 L 64.183594 -46.964844 L 56.355469 -54.792969 L 11.742188 -54.792969 L 3.914062 -46.964844 L 3.914062 -7.828125 L 11.742188 0 Z M 48.53125 -15.65625 L 19.570312 -15.65625 L 19.570312 -39.136719 L 48.53125 -39.136719 Z M 48.53125 -15.65625 "/></g></g></g><g fill="#000000" fill-opacity="0.502"><g transform="translate(226.396468, 261.443801)"><g><path d="M 62.621094 0 L 50.878906 -11.742188 L 58.707031 -19.570312 L 58.707031 -46.964844 L 50.878906 -54.792969 L 0.390625 -54.792969 L 0.390625 -39.136719 L 43.050781 -39.136719 L 43.050781 -27.394531 L 21.917969 -27.394531 L 21.917969 -35.222656 L 6.261719 -35.222656 L 6.261719 0 L 21.917969 0 L 21.917969 -11.742188 L 31.859375 -11.742188 L 43.597656 0 Z M 62.621094 0 "/></g></g></g><g fill="#000000" fill-opacity="0.502"><g transform="translate(298.166228, 261.443801)"><g><path d="M 68.488281 0 L 68.488281 -54.792969 L 52.835938 -54.792969 L 37.335938 -33.894531 L 21.917969 -54.792969 L 0.390625 -54.792969 L 0.390625 -39.136719 L 6.261719 -39.136719 L 6.261719 0 L 21.917969 0 L 21.917969 -28.570312 L 37.335938 -7.671875 L 52.835938 -28.570312 L 52.835938 0 Z M 68.488281 0 "/></g></g></g><g fill="#e31414" fill-opacity="1"><g transform="translate(7.080136, 257.984545)"><g><path d="M 51.269531 0 L 59.097656 -7.828125 L 59.097656 -27.394531 L 51.269531 -35.222656 L 19.570312 -35.222656 L 19.570312 -39.136719 L 59.097656 -39.136719 L 59.097656 -54.792969 L 11.742188 -54.792969 L 3.914062 -46.964844 L 3.914062 -27.394531 L 11.742188 -19.570312 L 43.441406 -19.570312 L 43.441406 -15.65625 L 3.914062 -15.65625 L 3.914062 0 Z M 51.269531 0 "/></g></g></g><g fill="#e31414" fill-opacity="1"><g transform="translate(78.458563, 257.984545)"><g><path d="M 37.648438 0 L 37.648438 -39.136719 L 59.253906 -39.136719 L 59.253906 -54.792969 L 0.390625 -54.792969 L 0.390625 -39.136719 L 21.996094 -39.136719 L 21.996094 0 Z M 37.648438 0 "/></g></g></g><g fill="#e31414" fill-opacity="1"><g transform="translate(146.4716, 257.984545)"><g><path d="M 56.355469 0 L 64.183594 -7.828125 L 64.183594 -46.964844 L 56.355469 -54.792969 L 11.742188 -54.792969 L 3.914062 -46.964844 L 3.914062 -7.828125 L 11.742188 0 Z M 48.53125 -15.65625 L 19.570312 -15.65625 L 19.570312 -39.136719 L 48.53125 -39.136719 Z M 48.53125 -15.65625 "/></g></g></g><g fill="#e31414" fill-opacity="1"><g transform="translate(222.937213, 257.984545)"><g><path d="M 62.621094 0 L 50.878906 -11.742188 L 58.707031 -19.570312 L 58.707031 -46.964844 L 50.878906 -54.792969 L 0.390625 -54.792969 L 0.390625 -39.136719 L 43.050781 -39.136719 L 43.050781 -27.394531 L 21.917969 -27.394531 L 21.917969 -35.222656 L 6.261719 -35.222656 L 6.261719 0 L 21.917969 0 L 21.917969 -11.742188 L 31.859375 -11.742188 L 43.597656 0 Z M 62.621094 0 "/></g></g></g><g fill="#e31414" fill-opacity="1"><g transform="translate(294.706972, 257.984545)"><g><path d="M 68.488281 0 L 68.488281 -54.792969 L 52.835938 -54.792969 L 37.335938 -33.894531 L 21.917969 -54.792969 L 0.390625 -54.792969 L 0.390625 -39.136719 L 6.261719 -39.136719 L 6.261719 0 L 21.917969 0 L 21.917969 -28.570312 L 37.335938 -7.671875 L 52.835938 -28.570312 L 52.835938 0 Z M 68.488281 0 "/></g></g></g></svg>